<?xml version="1.0" encoding="UTF-8" standalone="no"?>
<!DOCTYPE svg PUBLIC "-//W3C//DTD SVG 1.1//EN" "http://www.w3.org/Graphics/SVG/1.1/DTD/svg11.dtd">
<!--Generated by Intaglio, www.PurgatoryDesign.com-->
<svg version="1.1" viewBox="0,0,576,734" width="576" height="734" xmlns="http://www.w3.org/2000/svg" xmlns:xlink="http://www.w3.org/1999/xlink" xmlns:intaglio="http://purgatorydesign.com/namespaces/intaglio" intaglio:grid="36,36,1,1,0.5,#9999bf,1,0,0,0" intaglio:guides="0.8,#f0f,0,0"><image xlink:href="1.pdf" width="1074.6" height="846.143" transform="matrix(0.286824,0,0,0.286824,104.869,48.5452)"/><path fill="#fffffe" d="M368.75,69.9824 L405.75,69.9824 L405.75,108.75 L368.75,108.75 L368.75,69.9824 Z"/><g><path fill="none" stroke="#000" stroke-width="0.528906" d="M155.774,58.7405 C155.774,61.7346,153.347,64.1618,150.353,64.1618 C147.359,64.1618,144.932,61.7346,144.932,58.7405 C144.932,55.7464,147.359,53.3192,150.353,53.3192 C153.347,53.3192,155.774,55.7464,155.774,58.7405 Z"/><text font-family="Arial" font-weight="bold" font-size="14" transform="matrix(0.511319,0,0,0.511319,148.491,61.2299)" xml:space="preserve"><tspan kerning="0">1</tspan></text></g><g><path fill="none" stroke="#000" stroke-width="0.528906" d="M131.452,118.881 C131.452,121.875,129.025,124.302,126.031,124.302 C123.036,124.302,120.609,121.875,120.609,118.881 C120.609,115.887,123.036,113.459,126.031,113.459 C129.025,113.459,131.452,115.887,131.452,118.881 Z"/><text font-family="Arial" font-weight="bold" font-size="14" transform="matrix(0.511319,0,0,0.511319,124.168,121.37)" xml:space="preserve"><tspan>4</tspan></text></g><g><path fill="none" stroke="#000" stroke-width="0.528906" d="M127.894,199.567 C127.894,202.561,125.467,204.988,122.473,204.988 C119.478,204.988,117.051,202.561,117.051,199.567 C117.051,196.572,119.478,194.145,122.473,194.145 C125.467,194.145,127.894,196.572,127.894,199.567 Z"/><text font-family="Arial" font-weight="bold" font-size="14" transform="matrix(0.511319,0,0,0.511319,120.61,202.056)" xml:space="preserve"><tspan>5</tspan></text></g><g><path fill="none" stroke="#000" stroke-width="0.528906" d="M152.93,96.4443 C152.93,99.4384,150.503,101.866,147.509,101.866 C144.514,101.866,142.087,99.4384,142.087,96.4443 C142.087,93.4502,144.514,91.023,147.509,91.023 C150.503,91.023,152.93,93.4502,152.93,96.4443 Z"/><text font-family="Arial" font-weight="bold" font-size="14" transform="matrix(0.511319,0,0,0.511319,145.646,98.9337)" xml:space="preserve"><tspan>6</tspan></text></g><g><path fill="none" stroke="#000" stroke-width="0.528906" d="M213.401,97.5012 C213.401,100.495,210.974,102.923,207.98,102.923 C204.985,102.923,202.558,100.495,202.558,97.5012 C202.558,94.5071,204.985,92.08,207.98,92.08 C210.974,92.08,213.401,94.5071,213.401,97.5012 Z"/><text font-family="Arial" font-weight="bold" font-size="14" transform="matrix(0.511319,0,0,0.511319,206.117,99.9906)" xml:space="preserve"><tspan>7</tspan></text></g><g><path fill="none" stroke="#000" stroke-width="0.528906" d="M325.014,92.6947 C325.014,95.6888,322.587,98.116,319.593,98.116 C316.599,98.116,314.172,95.6888,314.172,92.6947 C314.172,89.7006,316.599,87.2734,319.593,87.2734 C322.587,87.2734,325.014,89.7006,325.014,92.6947 Z"/><text font-family="Arial" font-weight="bold" font-size="14" transform="matrix(0.511319,0,0,0.511319,317.731,95.1841)" xml:space="preserve"><tspan>9</tspan></text></g><g><path fill="none" stroke="#000" stroke-width="0.528906" d="M286.561,120.1 C286.561,123.094,284.134,125.521,281.14,125.521 C278.146,125.521,275.719,123.094,275.719,120.1 C275.719,117.106,278.146,114.678,281.14,114.678 C284.134,114.678,286.561,117.106,286.561,120.1 Z"/><text font-family="Arial" font-weight="bold" font-size="14" transform="matrix(0.511319,0,0,0.511319,277.151,122.589)" xml:space="preserve"><tspan>10</tspan></text></g><g><path fill="none" stroke="#000" stroke-width="0.528906" d="M263.21,86.5598 C263.21,89.5539,260.783,91.9811,257.789,91.9811 C254.795,91.9811,252.367,89.5539,252.367,86.5598 C252.367,83.5657,254.795,81.1385,257.789,81.1385 C260.783,81.1385,263.21,83.5657,263.21,86.5598 Z"/><text font-family="Arial" font-weight="bold" font-size="14" transform="matrix(0.511319,0,0,0.511319,255.926,89.0492)" xml:space="preserve"><tspan>8</tspan></text></g><path fill="#fffffe" d="M108.75,69.9824 L183.5,69.9824 L183.5,80.75 L108.75,80.75 L108.75,69.9824 Z"/><g><path fill="none" stroke="#000" stroke-width="0.528906" d="M366.496,58.2741 C366.496,61.2682,364.068,63.6954,361.074,63.6954 C358.08,63.6954,355.653,61.2682,355.653,58.2741 C355.653,55.28,358.08,52.8528,361.074,52.8528 C364.068,52.8528,366.496,55.28,366.496,58.2741 Z"/><text font-family="Arial" font-weight="bold" font-size="14" transform="matrix(0.511319,0,0,0.511319,359.212,60.7635)" xml:space="preserve"><tspan>3</tspan></text></g><g><path fill="none" stroke="#000" stroke-width="0.528906" d="M120.079,75.2405 C120.079,78.2346,117.652,80.6618,114.658,80.6618 C111.664,80.6618,109.237,78.2346,109.237,75.2405 C109.237,72.2464,111.664,69.8192,114.658,69.8192 C117.652,69.8192,120.079,72.2464,120.079,75.2405 Z"/><text font-family="Arial" font-weight="bold" font-size="14" transform="matrix(0.511319,0,0,0.511319,112.796,77.7299)" xml:space="preserve"><tspan>2</tspan></text></g></svg>
