<?xml version="1.0" encoding="UTF-8" standalone="no"?>
<!DOCTYPE svg PUBLIC "-//W3C//DTD SVG 1.1//EN" "http://www.w3.org/Graphics/SVG/1.1/DTD/svg11.dtd">
<!--Generated by Intaglio, www.PurgatoryDesign.com-->
<svg version="1.1" viewBox="0,0,576,734" width="576" height="734" xmlns="http://www.w3.org/2000/svg" xmlns:xlink="http://www.w3.org/1999/xlink" xmlns:intaglio="http://purgatorydesign.com/namespaces/intaglio" intaglio:grid="36,36,1,1,0.5,#9999bf,1,0,0,0" intaglio:guides="0.8,#f0f,0,0"><image xlink:href="1.pdf" width="1074.6" height="846.143" transform="matrix(0.286824,0,0,0.286824,104.869,48.5452)"/><g><path fill="none" stroke="#000" stroke-width="0.528906" d="M155.774,58.7405 C155.774,61.7346,153.347,64.1618,150.353,64.1618 C147.359,64.1618,144.932,61.7346,144.932,58.7405 C144.932,55.7464,147.359,53.3192,150.353,53.3192 C153.347,53.3192,155.774,55.7464,155.774,58.7405 Z"/><text font-family="Arial" font-weight="bold" font-size="14" transform="matrix(0.511319,0,0,0.511319,148.491,61.2299)" xml:space="preserve"><tspan kerning="0">1</tspan></text></g><g><path fill="none" stroke="#000" stroke-width="0.528906" d="M366.329,58.9905 C366.329,61.9846,363.902,64.4118,360.908,64.4118 C357.914,64.4118,355.487,61.9846,355.487,58.9905 C355.487,55.9964,357.914,53.5692,360.908,53.5692 C363.902,53.5692,366.329,55.9964,366.329,58.9905 Z"/><text font-family="Arial" font-weight="bold" font-size="14" transform="matrix(0.511319,0,0,0.511319,359.046,61.4799)" xml:space="preserve"><tspan>2</tspan></text></g><g><path fill="none" stroke="#000" stroke-width="0.528906" d="M131.246,118.774 C131.246,121.768,128.818,124.195,125.824,124.195 C122.83,124.195,120.403,121.768,120.403,118.774 C120.403,115.78,122.83,113.353,125.824,113.353 C128.818,113.353,131.246,115.78,131.246,118.774 Z"/><text font-family="Arial" font-weight="bold" font-size="14" transform="matrix(0.511319,0,0,0.511319,123.962,121.264)" xml:space="preserve"><tspan>3</tspan></text></g><g><path fill="none" stroke="#000" stroke-width="0.528906" d="M129.952,199.881 C129.952,202.875,127.525,205.302,124.531,205.302 C121.536,205.302,119.109,202.875,119.109,199.881 C119.109,196.887,121.536,194.459,124.531,194.459 C127.525,194.459,129.952,196.887,129.952,199.881 Z"/><text font-family="Arial" font-weight="bold" font-size="14" transform="matrix(0.511319,0,0,0.511319,122.668,202.37)" xml:space="preserve"><tspan>4</tspan></text></g><g><path fill="none" stroke="#000" stroke-width="0.528906" d="M153.644,95.8166 C153.644,98.8107,151.217,101.238,148.223,101.238 C145.228,101.238,142.801,98.8107,142.801,95.8166 C142.801,92.8225,145.228,90.3953,148.223,90.3953 C151.217,90.3953,153.644,92.8225,153.644,95.8166 Z"/><text font-family="Arial" font-weight="bold" font-size="14" transform="matrix(0.511319,0,0,0.511319,146.36,98.306)" xml:space="preserve"><tspan>5</tspan></text></g><g><path fill="none" stroke="#000" stroke-width="0.528906" d="M215.18,95.6943 C215.18,98.6884,212.753,101.116,209.759,101.116 C206.764,101.116,204.337,98.6884,204.337,95.6943 C204.337,92.7002,206.764,90.273,209.759,90.273 C212.753,90.273,215.18,92.7002,215.18,95.6943 Z"/><text font-family="Arial" font-weight="bold" font-size="14" transform="matrix(0.511319,0,0,0.511319,207.896,98.1837)" xml:space="preserve"><tspan>6</tspan></text></g><g><path fill="none" stroke="#000" stroke-width="0.528906" d="M263.901,86.2512 C263.901,89.2453,261.474,91.6725,258.48,91.6725 C255.485,91.6725,253.058,89.2453,253.058,86.2512 C253.058,83.2571,255.485,80.83,258.48,80.83 C261.474,80.83,263.901,83.2571,263.901,86.2512 Z"/><text font-family="Arial" font-weight="bold" font-size="14" transform="matrix(0.511319,0,0,0.511319,256.617,88.7406)" xml:space="preserve"><tspan>7</tspan></text></g><g><path fill="none" stroke="#000" stroke-width="0.528906" d="M290.514,118.195 C290.514,121.189,288.087,123.616,285.093,123.616 C282.099,123.616,279.672,121.189,279.672,118.195 C279.672,115.201,282.099,112.773,285.093,112.773 C288.087,112.773,290.514,115.201,290.514,118.195 Z"/><text font-family="Arial" font-weight="bold" font-size="14" transform="matrix(0.511319,0,0,0.511319,283.231,120.684)" xml:space="preserve"><tspan>9</tspan></text></g><g><path fill="none" stroke="#000" stroke-width="0.528906" d="M384.561,93.8496 C384.561,96.8437,382.134,99.2709,379.14,99.2709 C376.146,99.2709,373.719,96.8437,373.719,93.8496 C373.719,90.8555,376.146,88.4283,379.14,88.4283 C382.134,88.4283,384.561,90.8555,384.561,93.8496 Z"/><text font-family="Arial" font-weight="bold" font-size="14" transform="matrix(0.511319,0,0,0.511319,375.151,96.339)" xml:space="preserve"><tspan>10</tspan></text></g><g><path fill="none" stroke="#000" stroke-width="0.528906" d="M324.96,92.5598 C324.96,95.5539,322.533,97.9811,319.539,97.9811 C316.545,97.9811,314.117,95.5539,314.117,92.5598 C314.117,89.5657,316.545,87.1385,319.539,87.1385 C322.533,87.1385,324.96,89.5657,324.96,92.5598 Z"/><text font-family="Arial" font-weight="bold" font-size="14" transform="matrix(0.511319,0,0,0.511319,317.676,95.0492)" xml:space="preserve"><tspan>8</tspan></text></g></svg>
